<svg xmlns="http://www.w3.org/2000/svg" viewBox="0 0 1136.86 1136.57"><defs><style>.cls-1{fill:#fff}</style></defs><title>Asset 1</title><g id="Layer_2" data-name="Layer 2"><path class="cls-1" d="M1052.36 0H83.93C37.52 0 0 36.66 0 81.92v972.73c0 45.26 37.52 81.92 83.93 81.92h968.72c46.4 0 84.21-36.66 84.21-81.92V81.92c-.29-45.26-38.1-81.92-84.5-81.92zM337.13 968.43H168.42V426.21h168.71zM252.63 352a97.67 97.67 0 1 1 97.67-97.67c.3 53.87-43.53 97.67-97.67 97.67zm715.8 616.41H800V704.63c0-63-1.15-143.79-87.65-143.79-87.65 0-101.11 68.46-101.11 139.21v268.38H442.83V426.21h161.83v74.19H607c22.63-42.68 77.62-87.65 159.54-87.65 170.71 0 202.22 112.28 202.22 258.36v297.32z" id="Layer_1-2" data-name="Layer 1"/></g></svg>