<svg xmlns="http://www.w3.org/2000/svg" viewBox="0 0 184 184"><defs><style>.cls-1{fill:#b8d0d2;opacity:.9}.cls-2{fill:none}.cls-3{fill:#fff}</style></defs><title>process5</title><g id="Layer_2" data-name="Layer 2"><g id="Layer_1-2" data-name="Layer 1"><circle class="cls-1" cx="92" cy="92" r="92"/><path class="cls-2" d="M28.5 23h127v127h-127z"/><path class="cls-3" d="M123 62.52h-8.46a11.61 11.61 0 0 0-20.6-10.28L92 54.84l-1.94-2.64a11.61 11.61 0 0 0-20.64 10.32H61a7.7 7.7 0 0 0-7.72 7.76v42.67a7.73 7.73 0 0 0 7.72 7.76h62a7.73 7.73 0 0 0 7.76-7.76V70.28a7.73 7.73 0 0 0-7.76-7.76zm-19.4-7.76a3.88 3.88 0 1 1-3.88 3.88 3.89 3.89 0 0 1 3.92-3.88zm-23.28 0a3.88 3.88 0 1 1-3.88 3.88 3.89 3.89 0 0 1 3.92-3.88zM123 93.55v19.4H61V70.28h19.67l-8.07 11 6.28 4.54 9.23-12.57 3.89-5.3 3.88 5.28 9.23 12.57 6.28-4.54-8.07-11H123z"/></g></g></svg>